<mxfile host="app.diagrams.net" modified="2024-01-26T09:47:51.354Z" agent="Mozilla/5.0 (Windows NT 10.0; Win64; x64) AppleWebKit/537.36 (KHTML, like Gecko) Chrome/120.0.0.0 Safari/537.36" etag="fJw1-VXxp82zDlq4jAVe" version="23.0.2" type="google">
  <diagram id="prtHgNgQTEPvFCAcTncT" name="Page-1">
    <mxGraphModel grid="1" page="1" gridSize="10" guides="1" tooltips="1" connect="1" arrows="1" fold="1" pageScale="1" pageWidth="827" pageHeight="1169" math="0" shadow="0">
      <root>
        <mxCell id="0" />
        <mxCell id="1" parent="0" />
        <mxCell id="dNxyNK7c78bLwvsdeMH5-19" value="ارسال رونوشت" style="swimlane;html=1;childLayout=stackLayout;resizeParent=1;resizeParentMax=0;horizontal=0;startSize=20;horizontalStack=0;" vertex="1" parent="1">
          <mxGeometry x="120" y="120" width="600" height="300" as="geometry" />
        </mxCell>
        <mxCell id="dNxyNK7c78bLwvsdeMH5-20" value="کاربر" style="swimlane;html=1;startSize=20;horizontal=0;" vertex="1" parent="dNxyNK7c78bLwvsdeMH5-19">
          <mxGeometry x="20" width="580" height="180" as="geometry" />
        </mxCell>
        <mxCell id="e5zLdEuSUeadPVAm26xo-12" style="edgeStyle=orthogonalEdgeStyle;rounded=0;orthogonalLoop=1;jettySize=auto;html=1;" edge="1" parent="dNxyNK7c78bLwvsdeMH5-20" source="e5zLdEuSUeadPVAm26xo-9" target="e5zLdEuSUeadPVAm26xo-14">
          <mxGeometry relative="1" as="geometry">
            <mxPoint x="170" y="65" as="targetPoint" />
          </mxGeometry>
        </mxCell>
        <mxCell id="e5zLdEuSUeadPVAm26xo-9" value="" style="ellipse;fillColor=strokeColor;html=1;" vertex="1" parent="dNxyNK7c78bLwvsdeMH5-20">
          <mxGeometry x="65" y="50" width="30" height="30" as="geometry" />
        </mxCell>
        <mxCell id="e5zLdEuSUeadPVAm26xo-14" value="&lt;font size=&quot;3&quot;&gt;کاربر نامه ارسال می‌کند&lt;/font&gt;" style="html=1;align=center;verticalAlign=top;rounded=1;absoluteArcSize=1;arcSize=10;dashed=0;whiteSpace=wrap;" vertex="1" parent="dNxyNK7c78bLwvsdeMH5-20">
          <mxGeometry x="160" y="40" width="140" height="40" as="geometry" />
        </mxCell>
        <mxCell id="dNxyNK7c78bLwvsdeMH5-21" value="سامانه" style="swimlane;html=1;startSize=20;horizontal=0;" vertex="1" parent="dNxyNK7c78bLwvsdeMH5-19">
          <mxGeometry x="20" y="180" width="580" height="120" as="geometry" />
        </mxCell>
        <mxCell id="e5zLdEuSUeadPVAm26xo-17" value="" style="ellipse;html=1;shape=endState;fillColor=strokeColor;" vertex="1" parent="dNxyNK7c78bLwvsdeMH5-21">
          <mxGeometry x="376" y="50" width="30" height="30" as="geometry" />
        </mxCell>
        <mxCell id="e5zLdEuSUeadPVAm26xo-15" value="&lt;font size=&quot;3&quot;&gt;سامانه کاربر را از سامانه خارج می‌کند&lt;/font&gt;" style="html=1;align=center;verticalAlign=top;rounded=1;absoluteArcSize=1;arcSize=10;dashed=0;whiteSpace=wrap;" vertex="1" parent="dNxyNK7c78bLwvsdeMH5-21">
          <mxGeometry x="160" y="40" width="140" height="50" as="geometry" />
        </mxCell>
        <mxCell id="e5zLdEuSUeadPVAm26xo-18" style="edgeStyle=orthogonalEdgeStyle;rounded=0;orthogonalLoop=1;jettySize=auto;html=1;" edge="1" parent="dNxyNK7c78bLwvsdeMH5-21" source="e5zLdEuSUeadPVAm26xo-15" target="e5zLdEuSUeadPVAm26xo-17">
          <mxGeometry relative="1" as="geometry" />
        </mxCell>
        <mxCell id="e5zLdEuSUeadPVAm26xo-16" style="edgeStyle=orthogonalEdgeStyle;rounded=0;orthogonalLoop=1;jettySize=auto;html=1;" edge="1" parent="dNxyNK7c78bLwvsdeMH5-19" source="e5zLdEuSUeadPVAm26xo-14" target="e5zLdEuSUeadPVAm26xo-15">
          <mxGeometry relative="1" as="geometry" />
        </mxCell>
        <mxCell id="LVV5qmNLE3moK4UfldKX-1" value="ورود و احراز هویت" style="swimlane;html=1;childLayout=stackLayout;resizeParent=1;resizeParentMax=0;horizontal=0;startSize=20;horizontalStack=0;" vertex="1" parent="1">
          <mxGeometry x="230" y="900" width="1110" height="300" as="geometry" />
        </mxCell>
        <mxCell id="LVV5qmNLE3moK4UfldKX-2" value="کاربر" style="swimlane;html=1;startSize=20;horizontal=0;" vertex="1" parent="LVV5qmNLE3moK4UfldKX-1">
          <mxGeometry x="20" width="1090" height="150" as="geometry">
            <mxRectangle x="20" width="490" height="30" as="alternateBounds" />
          </mxGeometry>
        </mxCell>
        <mxCell id="LVV5qmNLE3moK4UfldKX-3" style="edgeStyle=orthogonalEdgeStyle;rounded=0;orthogonalLoop=1;jettySize=auto;html=1;" edge="1" parent="LVV5qmNLE3moK4UfldKX-2" source="LVV5qmNLE3moK4UfldKX-4" target="LVV5qmNLE3moK4UfldKX-5">
          <mxGeometry relative="1" as="geometry">
            <mxPoint x="110" y="82" as="targetPoint" />
          </mxGeometry>
        </mxCell>
        <mxCell id="LVV5qmNLE3moK4UfldKX-4" value="" style="ellipse;fillColor=strokeColor;html=1;" vertex="1" parent="LVV5qmNLE3moK4UfldKX-2">
          <mxGeometry x="45" y="67" width="30" height="30" as="geometry" />
        </mxCell>
        <mxCell id="LVV5qmNLE3moK4UfldKX-5" value="&lt;font style=&quot;font-size: 14px;&quot;&gt;درخواست ورود&lt;/font&gt;" style="html=1;align=center;verticalAlign=top;rounded=1;absoluteArcSize=1;arcSize=13;dashed=0;whiteSpace=wrap;" vertex="1" parent="LVV5qmNLE3moK4UfldKX-2">
          <mxGeometry x="108" y="62" width="140" height="40" as="geometry" />
        </mxCell>
        <mxCell id="LVV5qmNLE3moK4UfldKX-6" value="&lt;font style=&quot;font-size: 14px;&quot;&gt;وارد کردن اطلاعات&lt;/font&gt;" style="shape=mxgraph.uml25.action;html=1;align=center;verticalAlign=middle;absoluteArcSize=1;arcSize=10;dashed=0;spacingRight=10;whiteSpace=wrap;" vertex="1" parent="LVV5qmNLE3moK4UfldKX-2">
          <mxGeometry x="298" y="57" width="150" height="50" as="geometry" />
        </mxCell>
        <mxCell id="LVV5qmNLE3moK4UfldKX-7" value="" style="ellipse;html=1;shape=endState;fillColor=strokeColor;" vertex="1" parent="LVV5qmNLE3moK4UfldKX-2">
          <mxGeometry x="1044" y="67" width="30" height="30" as="geometry" />
        </mxCell>
        <mxCell id="LVV5qmNLE3moK4UfldKX-8" style="edgeStyle=orthogonalEdgeStyle;rounded=0;orthogonalLoop=1;jettySize=auto;html=1;" edge="1" parent="LVV5qmNLE3moK4UfldKX-2" source="LVV5qmNLE3moK4UfldKX-9" target="LVV5qmNLE3moK4UfldKX-7">
          <mxGeometry relative="1" as="geometry" />
        </mxCell>
        <mxCell id="LVV5qmNLE3moK4UfldKX-9" value="&lt;span style=&quot;font-size: 14px;&quot;&gt;ورود کاربر به سامانه&lt;/span&gt;" style="html=1;align=center;verticalAlign=top;rounded=1;absoluteArcSize=1;arcSize=13;dashed=0;whiteSpace=wrap;" vertex="1" parent="LVV5qmNLE3moK4UfldKX-2">
          <mxGeometry x="835" y="62" width="140" height="40" as="geometry" />
        </mxCell>
        <mxCell id="LVV5qmNLE3moK4UfldKX-10" value="سامانه" style="swimlane;html=1;startSize=20;horizontal=0;" vertex="1" parent="LVV5qmNLE3moK4UfldKX-1">
          <mxGeometry x="20" y="150" width="1090" height="150" as="geometry" />
        </mxCell>
        <mxCell id="LVV5qmNLE3moK4UfldKX-11" value="&lt;font style=&quot;font-size: 14px;&quot;&gt;درخواست اطلاعات برای ورود&lt;/font&gt;" style="html=1;align=center;verticalAlign=top;rounded=1;absoluteArcSize=1;arcSize=13;dashed=0;whiteSpace=wrap;" vertex="1" parent="LVV5qmNLE3moK4UfldKX-10">
          <mxGeometry x="108" y="30" width="140" height="40" as="geometry" />
        </mxCell>
        <mxCell id="LVV5qmNLE3moK4UfldKX-12" style="edgeStyle=orthogonalEdgeStyle;rounded=0;orthogonalLoop=1;jettySize=auto;html=1;" edge="1" parent="LVV5qmNLE3moK4UfldKX-10" source="LVV5qmNLE3moK4UfldKX-18" target="LVV5qmNLE3moK4UfldKX-13">
          <mxGeometry relative="1" as="geometry">
            <Array as="points" />
          </mxGeometry>
        </mxCell>
        <mxCell id="LVV5qmNLE3moK4UfldKX-13" value="" style="rhombus;" vertex="1" parent="LVV5qmNLE3moK4UfldKX-10">
          <mxGeometry x="665" y="84" width="30" height="30" as="geometry" />
        </mxCell>
        <mxCell id="LVV5qmNLE3moK4UfldKX-14" style="edgeStyle=orthogonalEdgeStyle;rounded=0;orthogonalLoop=1;jettySize=auto;html=1;" edge="1" parent="LVV5qmNLE3moK4UfldKX-10" source="LVV5qmNLE3moK4UfldKX-15" target="LVV5qmNLE3moK4UfldKX-11">
          <mxGeometry relative="1" as="geometry">
            <Array as="points">
              <mxPoint x="178" y="99" />
            </Array>
          </mxGeometry>
        </mxCell>
        <mxCell id="LVV5qmNLE3moK4UfldKX-15" value="&lt;font style=&quot;font-size: 14px;&quot;&gt;اعلام نامعتبر بودن اطلاعات&lt;/font&gt;" style="html=1;align=center;verticalAlign=top;rounded=1;absoluteArcSize=1;arcSize=13;dashed=0;whiteSpace=wrap;" vertex="1" parent="LVV5qmNLE3moK4UfldKX-10">
          <mxGeometry x="298" y="79" width="140" height="40" as="geometry" />
        </mxCell>
        <mxCell id="LVV5qmNLE3moK4UfldKX-16" style="edgeStyle=orthogonalEdgeStyle;rounded=0;orthogonalLoop=1;jettySize=auto;html=1;" edge="1" parent="LVV5qmNLE3moK4UfldKX-10" source="LVV5qmNLE3moK4UfldKX-13" target="LVV5qmNLE3moK4UfldKX-15">
          <mxGeometry relative="1" as="geometry" />
        </mxCell>
        <mxCell id="LVV5qmNLE3moK4UfldKX-17" value="&lt;font style=&quot;font-size: 12px;&quot;&gt;[در غیر این صورت]&lt;/font&gt;" style="edgeLabel;html=1;align=center;verticalAlign=middle;resizable=0;points=[];" connectable="0" vertex="1" parent="LVV5qmNLE3moK4UfldKX-16">
          <mxGeometry x="-0.2205" y="-2" relative="1" as="geometry">
            <mxPoint x="47" y="-7" as="offset" />
          </mxGeometry>
        </mxCell>
        <mxCell id="LVV5qmNLE3moK4UfldKX-18" value="&lt;font style=&quot;font-size: 14px;&quot;&gt;بررسی اطلاعات&lt;/font&gt;" style="shape=mxgraph.uml25.action;html=1;align=center;verticalAlign=middle;absoluteArcSize=1;arcSize=10;dashed=0;spacingLeft=10;flipH=1;whiteSpace=wrap;" vertex="1" parent="LVV5qmNLE3moK4UfldKX-10">
          <mxGeometry x="498" y="25" width="150" height="50" as="geometry" />
        </mxCell>
        <mxCell id="LVV5qmNLE3moK4UfldKX-19" value="&lt;span style=&quot;font-size: 14px;&quot;&gt;تایید اطلاعات توسط سامانه&lt;/span&gt;" style="html=1;align=center;verticalAlign=top;rounded=1;absoluteArcSize=1;arcSize=13;dashed=0;whiteSpace=wrap;" vertex="1" parent="LVV5qmNLE3moK4UfldKX-10">
          <mxGeometry x="835" y="79" width="140" height="40" as="geometry" />
        </mxCell>
        <mxCell id="LVV5qmNLE3moK4UfldKX-20" style="edgeStyle=orthogonalEdgeStyle;rounded=0;orthogonalLoop=1;jettySize=auto;html=1;" edge="1" parent="LVV5qmNLE3moK4UfldKX-10" source="LVV5qmNLE3moK4UfldKX-13" target="LVV5qmNLE3moK4UfldKX-19">
          <mxGeometry relative="1" as="geometry">
            <mxPoint x="731" y="98.63999999999999" as="sourcePoint" />
            <mxPoint x="824" y="98.63999999999999" as="targetPoint" />
          </mxGeometry>
        </mxCell>
        <mxCell id="LVV5qmNLE3moK4UfldKX-21" value="&lt;span style=&quot;font-size: 12px;&quot;&gt;[اطلاعات وارد شده صحیح است]&lt;/span&gt;" style="edgeLabel;html=1;align=center;verticalAlign=middle;resizable=0;points=[];" connectable="0" vertex="1" parent="LVV5qmNLE3moK4UfldKX-20">
          <mxGeometry x="-0.362" y="1" relative="1" as="geometry">
            <mxPoint x="18" y="-7" as="offset" />
          </mxGeometry>
        </mxCell>
        <mxCell id="LVV5qmNLE3moK4UfldKX-22" style="edgeStyle=orthogonalEdgeStyle;rounded=0;orthogonalLoop=1;jettySize=auto;html=1;" edge="1" parent="LVV5qmNLE3moK4UfldKX-1" source="LVV5qmNLE3moK4UfldKX-5" target="LVV5qmNLE3moK4UfldKX-11">
          <mxGeometry relative="1" as="geometry">
            <Array as="points" />
          </mxGeometry>
        </mxCell>
        <mxCell id="LVV5qmNLE3moK4UfldKX-23" style="edgeStyle=orthogonalEdgeStyle;rounded=0;orthogonalLoop=1;jettySize=auto;html=1;" edge="1" parent="LVV5qmNLE3moK4UfldKX-1" source="LVV5qmNLE3moK4UfldKX-11" target="LVV5qmNLE3moK4UfldKX-6">
          <mxGeometry relative="1" as="geometry">
            <Array as="points">
              <mxPoint x="288" y="200" />
              <mxPoint x="288" y="82" />
            </Array>
          </mxGeometry>
        </mxCell>
        <mxCell id="LVV5qmNLE3moK4UfldKX-24" style="edgeStyle=orthogonalEdgeStyle;rounded=0;orthogonalLoop=1;jettySize=auto;html=1;" edge="1" parent="LVV5qmNLE3moK4UfldKX-1" source="LVV5qmNLE3moK4UfldKX-6" target="LVV5qmNLE3moK4UfldKX-18">
          <mxGeometry relative="1" as="geometry">
            <mxPoint x="558.0256410256411" y="210" as="targetPoint" />
            <Array as="points">
              <mxPoint x="498" y="82" />
              <mxPoint x="498" y="200" />
            </Array>
          </mxGeometry>
        </mxCell>
        <mxCell id="LVV5qmNLE3moK4UfldKX-25" value="&lt;font style=&quot;font-size: 12px;&quot;&gt;اطلاعات وارد شده&lt;/font&gt;" style="edgeLabel;html=1;align=center;verticalAlign=middle;resizable=0;points=[];" connectable="0" vertex="1" parent="LVV5qmNLE3moK4UfldKX-24">
          <mxGeometry x="-0.8356" y="-1" relative="1" as="geometry">
            <mxPoint x="24" y="-10" as="offset" />
          </mxGeometry>
        </mxCell>
        <mxCell id="LVV5qmNLE3moK4UfldKX-26" style="edgeStyle=orthogonalEdgeStyle;rounded=0;orthogonalLoop=1;jettySize=auto;html=1;" edge="1" parent="LVV5qmNLE3moK4UfldKX-1" source="LVV5qmNLE3moK4UfldKX-19" target="LVV5qmNLE3moK4UfldKX-9">
          <mxGeometry relative="1" as="geometry" />
        </mxCell>
        <mxCell id="LVV5qmNLE3moK4UfldKX-103" value="ارسال نامه" style="swimlane;html=1;childLayout=stackLayout;resizeParent=1;resizeParentMax=0;horizontal=0;startSize=20;horizontalStack=0;" vertex="1" parent="1">
          <mxGeometry x="30" y="480" width="1560" height="360" as="geometry" />
        </mxCell>
        <mxCell id="LVV5qmNLE3moK4UfldKX-104" value="کاربر" style="swimlane;html=1;startSize=20;horizontal=0;" vertex="1" parent="LVV5qmNLE3moK4UfldKX-103">
          <mxGeometry x="20" width="1540" height="200" as="geometry">
            <mxRectangle x="20" width="490" height="30" as="alternateBounds" />
          </mxGeometry>
        </mxCell>
        <mxCell id="LVV5qmNLE3moK4UfldKX-105" style="edgeStyle=orthogonalEdgeStyle;rounded=0;orthogonalLoop=1;jettySize=auto;html=1;" edge="1" parent="LVV5qmNLE3moK4UfldKX-104" source="LVV5qmNLE3moK4UfldKX-106" target="LVV5qmNLE3moK4UfldKX-107">
          <mxGeometry relative="1" as="geometry">
            <mxPoint x="110" y="82" as="targetPoint" />
          </mxGeometry>
        </mxCell>
        <mxCell id="LVV5qmNLE3moK4UfldKX-106" value="" style="ellipse;fillColor=strokeColor;html=1;" vertex="1" parent="LVV5qmNLE3moK4UfldKX-104">
          <mxGeometry x="45" y="67" width="30" height="30" as="geometry" />
        </mxCell>
        <mxCell id="LVV5qmNLE3moK4UfldKX-107" value="&lt;font style=&quot;font-size: 14px;&quot;&gt;درخواست ارسال نامه جدید&lt;/font&gt;" style="html=1;align=center;verticalAlign=top;rounded=1;absoluteArcSize=1;arcSize=13;dashed=0;whiteSpace=wrap;" vertex="1" parent="LVV5qmNLE3moK4UfldKX-104">
          <mxGeometry x="108" y="62" width="140" height="40" as="geometry" />
        </mxCell>
        <mxCell id="LVV5qmNLE3moK4UfldKX-108" style="rounded=0;orthogonalLoop=1;jettySize=auto;html=1;exitX=0.677;exitY=0.466;exitDx=0;exitDy=0;exitPerimeter=0;entryX=0;entryY=0.5;entryDx=0;entryDy=0;" edge="1" parent="LVV5qmNLE3moK4UfldKX-104" source="LVV5qmNLE3moK4UfldKX-109" target="LVV5qmNLE3moK4UfldKX-110">
          <mxGeometry relative="1" as="geometry">
            <mxPoint x="364.0049999999999" y="133.5200000000001" as="sourcePoint" />
            <mxPoint x="384" y="79.48405500774982" as="targetPoint" />
          </mxGeometry>
        </mxCell>
        <mxCell id="LVV5qmNLE3moK4UfldKX-109" value="" style="html=1;points=[];perimeter=orthogonalPerimeter;fillColor=strokeColor;" vertex="1" parent="LVV5qmNLE3moK4UfldKX-104">
          <mxGeometry x="304" y="59" width="5" height="80" as="geometry" />
        </mxCell>
        <mxCell id="LVV5qmNLE3moK4UfldKX-110" value="&lt;span style=&quot;font-size: 14px;&quot;&gt;دریافت اطلاعات گیرنده نامه&lt;/span&gt;" style="html=1;align=center;verticalAlign=top;rounded=1;absoluteArcSize=1;arcSize=13;dashed=0;whiteSpace=wrap;" vertex="1" parent="LVV5qmNLE3moK4UfldKX-104">
          <mxGeometry x="384" y="27" width="140" height="40" as="geometry" />
        </mxCell>
        <mxCell id="LVV5qmNLE3moK4UfldKX-111" value="&lt;span style=&quot;font-size: 14px;&quot;&gt;دریافت عنوان نامه&lt;/span&gt;" style="html=1;align=center;verticalAlign=top;rounded=1;absoluteArcSize=1;arcSize=13;dashed=0;whiteSpace=wrap;" vertex="1" parent="LVV5qmNLE3moK4UfldKX-104">
          <mxGeometry x="384" y="77" width="140" height="40" as="geometry" />
        </mxCell>
        <mxCell id="LVV5qmNLE3moK4UfldKX-112" value="&lt;span style=&quot;font-size: 14px;&quot;&gt;دریافت متن نامه&lt;/span&gt;" style="html=1;align=center;verticalAlign=top;rounded=1;absoluteArcSize=1;arcSize=13;dashed=0;whiteSpace=wrap;" vertex="1" parent="LVV5qmNLE3moK4UfldKX-104">
          <mxGeometry x="384" y="128" width="140" height="40" as="geometry" />
        </mxCell>
        <mxCell id="LVV5qmNLE3moK4UfldKX-113" style="rounded=0;orthogonalLoop=1;jettySize=auto;html=1;exitX=0.791;exitY=0.48;exitDx=0;exitDy=0;exitPerimeter=0;entryX=0;entryY=0.5;entryDx=0;entryDy=0;" edge="1" parent="LVV5qmNLE3moK4UfldKX-104" source="LVV5qmNLE3moK4UfldKX-109" target="LVV5qmNLE3moK4UfldKX-111">
          <mxGeometry relative="1" as="geometry">
            <mxPoint x="317" y="104" as="sourcePoint" />
            <mxPoint x="394" y="57" as="targetPoint" />
          </mxGeometry>
        </mxCell>
        <mxCell id="LVV5qmNLE3moK4UfldKX-114" style="rounded=0;orthogonalLoop=1;jettySize=auto;html=1;exitX=0.905;exitY=0.505;exitDx=0;exitDy=0;exitPerimeter=0;entryX=0;entryY=0.5;entryDx=0;entryDy=0;" edge="1" parent="LVV5qmNLE3moK4UfldKX-104" source="LVV5qmNLE3moK4UfldKX-109" target="LVV5qmNLE3moK4UfldKX-112">
          <mxGeometry relative="1" as="geometry">
            <mxPoint x="318" y="107" as="sourcePoint" />
            <mxPoint x="394" y="107" as="targetPoint" />
          </mxGeometry>
        </mxCell>
        <mxCell id="LVV5qmNLE3moK4UfldKX-115" style="rounded=0;orthogonalLoop=1;jettySize=auto;html=1;exitX=1;exitY=0.5;exitDx=0;exitDy=0;entryX=-0.17;entryY=0.164;entryDx=0;entryDy=0;entryPerimeter=0;" edge="1" parent="LVV5qmNLE3moK4UfldKX-104" source="LVV5qmNLE3moK4UfldKX-110" target="LVV5qmNLE3moK4UfldKX-117">
          <mxGeometry relative="1" as="geometry">
            <mxPoint x="674.0049999999999" y="133.0200000000001" as="sourcePoint" />
            <mxPoint x="595" y="95" as="targetPoint" />
          </mxGeometry>
        </mxCell>
        <mxCell id="LVV5qmNLE3moK4UfldKX-116" style="edgeStyle=orthogonalEdgeStyle;rounded=0;orthogonalLoop=1;jettySize=auto;html=1;" edge="1" parent="LVV5qmNLE3moK4UfldKX-104" source="LVV5qmNLE3moK4UfldKX-117" target="LVV5qmNLE3moK4UfldKX-121">
          <mxGeometry relative="1" as="geometry" />
        </mxCell>
        <mxCell id="LVV5qmNLE3moK4UfldKX-117" value="" style="html=1;points=[];perimeter=orthogonalPerimeter;fillColor=strokeColor;" vertex="1" parent="LVV5qmNLE3moK4UfldKX-104">
          <mxGeometry x="594" y="22" width="5" height="150" as="geometry" />
        </mxCell>
        <mxCell id="LVV5qmNLE3moK4UfldKX-118" style="rounded=0;orthogonalLoop=1;jettySize=auto;html=1;exitX=1;exitY=0.5;exitDx=0;exitDy=0;entryX=-0.218;entryY=0.507;entryDx=0;entryDy=0;entryPerimeter=0;" edge="1" parent="LVV5qmNLE3moK4UfldKX-104" source="LVV5qmNLE3moK4UfldKX-111" target="LVV5qmNLE3moK4UfldKX-117">
          <mxGeometry relative="1" as="geometry">
            <mxPoint x="627" y="103.5" as="sourcePoint" />
            <mxPoint x="574" y="100" as="targetPoint" />
          </mxGeometry>
        </mxCell>
        <mxCell id="LVV5qmNLE3moK4UfldKX-119" style="rounded=0;orthogonalLoop=1;jettySize=auto;html=1;exitX=1;exitY=0.5;exitDx=0;exitDy=0;entryX=0.212;entryY=0.844;entryDx=0;entryDy=0;entryPerimeter=0;" edge="1" parent="LVV5qmNLE3moK4UfldKX-104" source="LVV5qmNLE3moK4UfldKX-112" target="LVV5qmNLE3moK4UfldKX-117">
          <mxGeometry relative="1" as="geometry">
            <mxPoint x="628" y="106.5" as="sourcePoint" />
            <mxPoint x="594" y="150" as="targetPoint" />
          </mxGeometry>
        </mxCell>
        <mxCell id="LVV5qmNLE3moK4UfldKX-120" style="edgeStyle=orthogonalEdgeStyle;rounded=0;orthogonalLoop=1;jettySize=auto;html=1;" edge="1" parent="LVV5qmNLE3moK4UfldKX-104" source="LVV5qmNLE3moK4UfldKX-121" target="LVV5qmNLE3moK4UfldKX-122">
          <mxGeometry relative="1" as="geometry">
            <mxPoint x="784" y="97.03030303030312" as="targetPoint" />
          </mxGeometry>
        </mxCell>
        <mxCell id="LVV5qmNLE3moK4UfldKX-121" value="&lt;span style=&quot;font-size: 14px;&quot;&gt;ارسال رونوشتی از نامه&lt;/span&gt;" style="html=1;align=center;verticalAlign=top;rounded=1;absoluteArcSize=1;arcSize=13;dashed=0;whiteSpace=wrap;" vertex="1" parent="LVV5qmNLE3moK4UfldKX-104">
          <mxGeometry x="624" y="77" width="140" height="40" as="geometry" />
        </mxCell>
        <mxCell id="LVV5qmNLE3moK4UfldKX-122" value="تایید اطلاعات نامه توسط کاربر" style="shape=mxgraph.uml25.action;html=1;align=center;verticalAlign=middle;absoluteArcSize=1;arcSize=10;dashed=0;spacingRight=10;whiteSpace=wrap;" vertex="1" parent="LVV5qmNLE3moK4UfldKX-104">
          <mxGeometry x="794" y="75.5" width="146" height="43" as="geometry" />
        </mxCell>
        <mxCell id="LVV5qmNLE3moK4UfldKX-123" value="سامانه" style="swimlane;html=1;startSize=20;horizontal=0;" vertex="1" parent="LVV5qmNLE3moK4UfldKX-103">
          <mxGeometry x="20" y="200" width="1540" height="160" as="geometry" />
        </mxCell>
        <mxCell id="LVV5qmNLE3moK4UfldKX-124" value="" style="ellipse;html=1;shape=endState;fillColor=strokeColor;" vertex="1" parent="LVV5qmNLE3moK4UfldKX-123">
          <mxGeometry x="1504" y="84" width="30" height="30" as="geometry" />
        </mxCell>
        <mxCell id="LVV5qmNLE3moK4UfldKX-125" value="&lt;font style=&quot;font-size: 14px;&quot;&gt;درخواست اطلاعات نامه&lt;/font&gt;" style="html=1;align=center;verticalAlign=top;rounded=1;absoluteArcSize=1;arcSize=13;dashed=0;whiteSpace=wrap;" vertex="1" parent="LVV5qmNLE3moK4UfldKX-123">
          <mxGeometry x="108" y="30" width="140" height="40" as="geometry" />
        </mxCell>
        <mxCell id="LVV5qmNLE3moK4UfldKX-127" style="edgeStyle=orthogonalEdgeStyle;rounded=0;orthogonalLoop=1;jettySize=auto;html=1;" edge="1" parent="LVV5qmNLE3moK4UfldKX-123" source="LVV5qmNLE3moK4UfldKX-129" target="LVV5qmNLE3moK4UfldKX-136">
          <mxGeometry relative="1" as="geometry">
            <mxPoint x="1231" y="98.63999999999999" as="sourcePoint" />
            <mxPoint x="1354" y="99" as="targetPoint" />
          </mxGeometry>
        </mxCell>
        <mxCell id="LVV5qmNLE3moK4UfldKX-128" value="&lt;span style=&quot;font-size: 12px;&quot;&gt;[اطلاعات وارد شده صحیح است]&lt;/span&gt;" style="edgeLabel;html=1;align=center;verticalAlign=middle;resizable=0;points=[];" connectable="0" vertex="1" parent="LVV5qmNLE3moK4UfldKX-127">
          <mxGeometry x="-0.362" y="1" relative="1" as="geometry">
            <mxPoint x="18" y="-8" as="offset" />
          </mxGeometry>
        </mxCell>
        <mxCell id="LVV5qmNLE3moK4UfldKX-129" value="" style="rhombus;" vertex="1" parent="LVV5qmNLE3moK4UfldKX-123">
          <mxGeometry x="1165" y="84" width="30" height="30" as="geometry" />
        </mxCell>
        <mxCell id="LVV5qmNLE3moK4UfldKX-130" style="edgeStyle=orthogonalEdgeStyle;rounded=0;orthogonalLoop=1;jettySize=auto;html=1;" edge="1" parent="LVV5qmNLE3moK4UfldKX-123" source="LVV5qmNLE3moK4UfldKX-131" target="LVV5qmNLE3moK4UfldKX-125">
          <mxGeometry relative="1" as="geometry">
            <Array as="points">
              <mxPoint x="178" y="99" />
            </Array>
          </mxGeometry>
        </mxCell>
        <mxCell id="LVV5qmNLE3moK4UfldKX-131" value="&lt;font style=&quot;font-size: 14px;&quot;&gt;اعلام نامعتبر بودن اطلاعات&lt;/font&gt;" style="html=1;align=center;verticalAlign=top;rounded=1;absoluteArcSize=1;arcSize=13;dashed=0;whiteSpace=wrap;" vertex="1" parent="LVV5qmNLE3moK4UfldKX-123">
          <mxGeometry x="558" y="79" width="140" height="40" as="geometry" />
        </mxCell>
        <mxCell id="LVV5qmNLE3moK4UfldKX-132" style="edgeStyle=orthogonalEdgeStyle;rounded=0;orthogonalLoop=1;jettySize=auto;html=1;" edge="1" parent="LVV5qmNLE3moK4UfldKX-123" source="LVV5qmNLE3moK4UfldKX-129" target="LVV5qmNLE3moK4UfldKX-131">
          <mxGeometry relative="1" as="geometry" />
        </mxCell>
        <mxCell id="LVV5qmNLE3moK4UfldKX-133" value="&lt;font style=&quot;font-size: 12px;&quot;&gt;[در غیر این صورت]&lt;/font&gt;" style="edgeLabel;html=1;align=center;verticalAlign=middle;resizable=0;points=[];" connectable="0" vertex="1" parent="LVV5qmNLE3moK4UfldKX-132">
          <mxGeometry x="-0.2205" y="-2" relative="1" as="geometry">
            <mxPoint x="47" y="-7" as="offset" />
          </mxGeometry>
        </mxCell>
        <mxCell id="LVV5qmNLE3moK4UfldKX-135" style="edgeStyle=orthogonalEdgeStyle;rounded=0;orthogonalLoop=1;jettySize=auto;html=1;" edge="1" parent="LVV5qmNLE3moK4UfldKX-123" source="LVV5qmNLE3moK4UfldKX-136" target="LVV5qmNLE3moK4UfldKX-124">
          <mxGeometry relative="1" as="geometry" />
        </mxCell>
        <mxCell id="LVV5qmNLE3moK4UfldKX-136" value="&lt;font style=&quot;font-size: 14px;&quot;&gt;قرار دادن نامه در مسیر ارسال به گیرنده توسط سامانه&lt;/font&gt;" style="html=1;align=center;verticalAlign=top;rounded=1;absoluteArcSize=1;arcSize=13;dashed=0;whiteSpace=wrap;" vertex="1" parent="LVV5qmNLE3moK4UfldKX-123">
          <mxGeometry x="1336" y="79" width="140" height="40" as="geometry" />
        </mxCell>
        <mxCell id="LVV5qmNLE3moK4UfldKX-134" value="بررسی اطلاعات" style="shape=mxgraph.uml25.action;html=1;align=center;verticalAlign=middle;absoluteArcSize=1;arcSize=10;dashed=0;spacingLeft=10;flipH=1;whiteSpace=wrap;" vertex="1" parent="LVV5qmNLE3moK4UfldKX-123">
          <mxGeometry x="1000" y="27" width="150" height="43" as="geometry" />
        </mxCell>
        <mxCell id="LVV5qmNLE3moK4UfldKX-126" style="edgeStyle=orthogonalEdgeStyle;rounded=0;orthogonalLoop=1;jettySize=auto;html=1;" edge="1" parent="LVV5qmNLE3moK4UfldKX-123" source="LVV5qmNLE3moK4UfldKX-134" target="LVV5qmNLE3moK4UfldKX-129">
          <mxGeometry relative="1" as="geometry">
            <Array as="points" />
          </mxGeometry>
        </mxCell>
        <mxCell id="LVV5qmNLE3moK4UfldKX-137" style="edgeStyle=orthogonalEdgeStyle;rounded=0;orthogonalLoop=1;jettySize=auto;html=1;" edge="1" parent="LVV5qmNLE3moK4UfldKX-103" source="LVV5qmNLE3moK4UfldKX-107" target="LVV5qmNLE3moK4UfldKX-125">
          <mxGeometry relative="1" as="geometry">
            <Array as="points" />
          </mxGeometry>
        </mxCell>
        <mxCell id="LVV5qmNLE3moK4UfldKX-138" style="edgeStyle=orthogonalEdgeStyle;rounded=0;orthogonalLoop=1;jettySize=auto;html=1;entryX=-0.121;entryY=0.509;entryDx=0;entryDy=0;entryPerimeter=0;" edge="1" parent="LVV5qmNLE3moK4UfldKX-103" source="LVV5qmNLE3moK4UfldKX-125" target="LVV5qmNLE3moK4UfldKX-109">
          <mxGeometry relative="1" as="geometry">
            <mxPoint x="284" y="97" as="targetPoint" />
          </mxGeometry>
        </mxCell>
        <mxCell id="LVV5qmNLE3moK4UfldKX-139" style="edgeStyle=orthogonalEdgeStyle;rounded=0;orthogonalLoop=1;jettySize=auto;html=1;" edge="1" parent="LVV5qmNLE3moK4UfldKX-103" source="LVV5qmNLE3moK4UfldKX-122" target="LVV5qmNLE3moK4UfldKX-134">
          <mxGeometry relative="1" as="geometry">
            <Array as="points">
              <mxPoint x="984" y="97" />
              <mxPoint x="984" y="250" />
            </Array>
          </mxGeometry>
        </mxCell>
        <mxCell id="LVV5qmNLE3moK4UfldKX-140" value="اطلاعات نامه" style="edgeLabel;html=1;align=center;verticalAlign=middle;resizable=0;points=[];" connectable="0" vertex="1" parent="LVV5qmNLE3moK4UfldKX-139">
          <mxGeometry x="-0.7829" y="2" relative="1" as="geometry">
            <mxPoint x="2" y="-6" as="offset" />
          </mxGeometry>
        </mxCell>
      </root>
    </mxGraphModel>
  </diagram>
</mxfile>
